<?xml version="1.0" encoding="UTF-8"?> <!-- Generator: Adobe Illustrator 24.2.0, SVG Export Plug-In . SVG Version: 6.00 Build 0) --> <svg xmlns="http://www.w3.org/2000/svg" xmlns:xlink="http://www.w3.org/1999/xlink" version="1.1" id="Layer_1" x="0px" y="0px" viewBox="0 0 274.8 79.3" style="enable-background:new 0 0 274.8 79.3;" xml:space="preserve"> <style type="text/css"> .st0{fill:#474D57;} .st1{fill:#FFFFFF;} .st2{fill:#00539B;} .st3{fill-rule:evenodd;clip-rule:evenodd;fill:#14A9A2;} .st4{fill-rule:evenodd;clip-rule:evenodd;fill:#5AA3D2;} </style> <g> <polygon class="st0" points="146.2,31 130.8,31 125.1,41.5 119.6,31 104.7,31 117,50.4 104.4,68.9 119.3,68.9 125.5,58.8 132,68.9 146.7,68.9 133.8,49.2 146.2,31 "></polygon> <polyline class="st1" points="143.2,32.6 132.5,48.3 131.9,49.2 132.5,50.1 143.8,67.3 132.9,67.3 126.8,58 125.5,55.9 124.2,58 118.4,67.3 107.4,67.3 118.3,51.3 118.9,50.4 118.3,49.6 107.5,32.6 118.7,32.6 123.7,42.2 125,44.8 126.5,42.2 131.8,32.6 143.2,32.6 "></polyline> <path class="st0" d="M2.2,69.1V31H16c4.7,0,8.5,1.1,11.2,3.4c2.8,2.3,4.1,5.4,4.1,9.5c0,2.6-0.6,4.9-1.8,6.7 c-1.2,1.9-2.9,3.3-5.1,4.3l7.7,14.1H22l-6.1-12.5h-4.2v12.5H2.2z M16.5,39.2h-4.8v9.7h4.9c1.6,0,2.9-0.4,3.8-1.2 c0.9-0.8,1.3-2,1.3-3.6c0-1.5-0.5-2.7-1.4-3.6C19.3,39.6,18,39.2,16.5,39.2z"></path> <path class="st0" d="M44.1,69.1H34l18.9-38.6h0.5l18.9,38.6H62.2l-2.7-5.8H46.7L44.1,69.1z M49.5,56.8h7.2 c-1.7-3.9-2.9-6.9-3.6-9.1l-1.6,4C50.7,54,50,55.7,49.5,56.8z"></path> <path class="st0" d="M87.3,69.1H74.5V31h12.7c6.5,0,11.7,1.8,15.7,5.3c3.9,3.6,5.9,8.1,5.9,13.7c0,5.6-2,10.2-5.9,13.7 C99.1,67.3,93.9,69.1,87.3,69.1z M87.1,39.2h-3v21.8h3c3.7,0,6.6-1,8.7-3.1c2.1-2.1,3.2-4.7,3.2-7.8c0-3.1-1.1-5.7-3.2-7.8 C93.8,40.2,90.9,39.2,87.1,39.2z"></path> <path class="st2" d="M171.1,31h9.7V55c0,4.5-1.5,8.1-4.4,10.8c-2.9,2.7-6.9,4-12.1,4c-5.2,0-9.2-1.3-12.1-4 c-2.9-2.7-4.4-6.3-4.4-10.8V31h9.7v22.9c0,2.3,0.6,4,1.8,5.2c1.2,1.2,2.9,1.8,5.1,1.8s3.9-0.6,5.1-1.8c1.2-1.2,1.7-3,1.7-5.2V31z"></path> <path class="st2" d="M197,57h-3v12.1h-9.7V31H197c4.7,0,8.5,1.1,11.2,3.3c2.8,2.2,4.2,5.4,4.2,9.6c0,4.2-1.4,7.4-4.2,9.7 C205.5,55.9,201.8,57,197,57z M197.5,39.2H194v9.7h3.5c1.6,0,2.9-0.4,3.8-1.2c0.9-0.8,1.4-2,1.4-3.6c0-1.5-0.5-2.7-1.4-3.6 C200.4,39.6,199.1,39.2,197.5,39.2z"></path> <path class="st3" d="M225,38.4l-0.1,7.2c-0.1,5.2-0.6,9.3-3.8,11.6c2.6,1,5,1.5,7.2,1.5c1.5,0,2.8-0.2,4-0.6 c1.1-0.4,2.1-1.1,2.9-1.9c0.8-0.9,1.5-1.9,1.9-3.2c0.5-1.4,0.7-3,0.8-4.8l0.1-9.7l0.1-7l0-1.4l1.4,0l5.6,0.1l-13.6-14l-15.4,15.1 l8.9,0.1L225,38.4z"></path> <path class="st4" d="M243.9,3.2l-6.3,6.2L257,29.2l2.3,2.4l-3.3,0l-7.6-0.1l-0.1,5.6l-0.1,12.2c0,3.3-0.6,6.4-1.8,9 c-1.1,2.4-2.6,4.5-4.6,6.2c-3.5,2.9-8.2,4.5-13.4,4.5c-2.1,0-4.2-0.3-6.2-0.9c-2-0.6-3.8-1.4-5.4-2.4c-1.3-0.8-2.3-1.8-3.1-2.9 c6.4,21.6,47.2,19,47.5-10.3l0.2-15.2l0.1-7l8.9,0.1L243.9,3.2z"></path> </g> </svg> 